<?xml version="1.0" ?><!-- Uploaded to: SVG Repo, www.svgrepo.com, Generator: SVG Repo Mixer Tools -->
<svg fill="#000000" width="800px" height="800px" viewBox="0 0 64 64" id="Layer_1_1_" version="1.1" xml:space="preserve" xmlns="http://www.w3.org/2000/svg" xmlns:xlink="http://www.w3.org/1999/xlink"><path d="M63,36h-4v-2h-4v-1.5L50.333,29H47V18c0-1.654-1.346-3-3-3h-1v-1c0-1.654-1.346-3-3-3H12c-1.302,0-2.402,0.839-2.816,2H1v6  h8v4.184C7.839,23.598,7,24.698,7,26v7H1v16h6v1c0,1.654,1.346,3,3,3h30c1.302,0,2.402-0.839,2.816-2H44  c1.302,0,2.402-0.839,2.816-2h3.518L55,45.5V44h4v-2h4V36z M41,14v1h-4v8H15V13h25C40.551,13,41,13.448,41,14z M12,13h1v10h-2v-9  C11,13.448,11.449,13,12,13z M3,17v-2h6v2H3z M7,35v2.556C6.409,37.212,5.732,37,5,37s-1.409,0.212-2,0.556V35H7z M7,41  c0,1.103-0.897,2-2,2s-2-0.897-2-2s0.897-2,2-2S7,39.897,7,41z M3,47v-2.556C3.591,44.788,4.268,45,5,45s1.409-0.212,2-0.556V47H3z   M41,50c0,0.552-0.449,1-1,1H15V28h-2v23h-3c-0.551,0-1-0.448-1-1V26c0-0.552,0.449-1,1-1h25v24h2V25h3c0.551,0,1,0.448,1,1V50z   M45,48c0,0.552-0.449,1-1,1h-1V26c0-1.654-1.346-3-3-3h-1v-6h5c0.551,0,1,0.448,1,1V48z M53,44.5L49.667,47H47V31h2.667L53,33.5  V44.5z M57,42h-2v-6h2V42z M61,40h-2v-2h2V40z"/></svg>